<?xml version="1.0" encoding="UTF-8" standalone="no"?>
<svg
   xmlns:dc="http://purl.org/dc/elements/1.1/"
   xmlns:cc="http://creativecommons.org/ns#"
   xmlns:rdf="http://www.w3.org/1999/02/22-rdf-syntax-ns#"
   xmlns:svg="http://www.w3.org/2000/svg"
   xmlns="http://www.w3.org/2000/svg"
   xmlns:sodipodi="http://sodipodi.sourceforge.net/DTD/sodipodi-0.dtd"
   xmlns:inkscape="http://www.inkscape.org/namespaces/inkscape"
   viewBox="0 0 821.9 595.3"
   version="1.1"
   id="svg10"
   sodipodi:docname="logo.svg"
   inkscape:version="0.92.3 (2405546, 2018-03-11)"
   inkscape:export-filename="/home/dos/Documents/Dev/WebApps/Delivery/services/client/src/logo.png"
   inkscape:export-xdpi="22.517004"
   inkscape:export-ydpi="22.517004"
   width="821.90002"
   height="595.29999">
  <metadata
     id="metadata16">
    <rdf:RDF>
      <cc:Work
         rdf:about="">
        <dc:format>image/svg+xml</dc:format>
        <dc:type
           rdf:resource="http://purl.org/dc/dcmitype/StillImage" />
        <dc:title></dc:title>
      </cc:Work>
    </rdf:RDF>
  </metadata>
  <defs
     id="defs14">
    <linearGradient
       x1="0"
       y1="0"
       x2="1"
       y2="0"
       gradientUnits="userSpaceOnUse"
       gradientTransform="matrix(31.415527,0,0,-31.415527,216.33496,598.63867)"
       spreadMethod="pad"
       id="linearGradient534">
      <stop
         style="stop-opacity:1;stop-color:#03a5e8"
         offset="0"
         id="stop530" />
      <stop
         style="stop-opacity:1;stop-color:#2b3991"
         offset="1"
         id="stop532" />
    </linearGradient>
    <linearGradient
       x1="0"
       y1="0"
       x2="1"
       y2="0"
       gradientUnits="userSpaceOnUse"
       gradientTransform="matrix(27.498535,0,0,-27.498535,194.9082,552.93262)"
       spreadMethod="pad"
       id="linearGradient514">
      <stop
         style="stop-opacity:1;stop-color:#de0674"
         offset="0"
         id="stop510" />
      <stop
         style="stop-opacity:1;stop-color:#bf1e2f"
         offset="1"
         id="stop512" />
    </linearGradient>
    <linearGradient
       x1="0"
       y1="0"
       x2="1"
       y2="0"
       gradientUnits="userSpaceOnUse"
       gradientTransform="matrix(68.958008,0,0,-68.958008,206.02148,504.70557)"
       spreadMethod="pad"
       id="linearGradient494">
      <stop
         style="stop-opacity:1;stop-color:#de0674"
         offset="0"
         id="stop490" />
      <stop
         style="stop-opacity:1;stop-color:#bf1e2f"
         offset="1"
         id="stop492" />
    </linearGradient>
    <linearGradient
       x1="0"
       y1="0"
       x2="1"
       y2="0"
       gradientUnits="userSpaceOnUse"
       gradientTransform="matrix(131.03857,0,0,-131.03857,59.45166,505.32471)"
       spreadMethod="pad"
       id="linearGradient474">
      <stop
         style="stop-opacity:1;stop-color:#03a5e8"
         offset="0"
         id="stop470" />
      <stop
         style="stop-opacity:1;stop-color:#2b3991"
         offset="1"
         id="stop472" />
    </linearGradient>
    <linearGradient
       x1="0"
       y1="0"
       x2="1"
       y2="0"
       gradientUnits="userSpaceOnUse"
       gradientTransform="matrix(167.3667,0,0,-167.3667,41.288086,505.32812)"
       spreadMethod="pad"
       id="linearGradient454">
      <stop
         style="stop-opacity:1;stop-color:#f68e1f"
         offset="0"
         id="stop450" />
      <stop
         style="stop-opacity:1;stop-color:#ec4236"
         offset="1"
         id="stop452" />
    </linearGradient>
  </defs>
  <sodipodi:namedview
     pagecolor="#ffffff"
     bordercolor="#666666"
     borderopacity="1"
     objecttolerance="10"
     gridtolerance="10"
     guidetolerance="10"
     inkscape:pageopacity="0"
     inkscape:pageshadow="2"
     inkscape:window-width="1559"
     inkscape:window-height="845"
     id="namedview12"
     showgrid="false"
     inkscape:zoom="0.82591412"
     inkscape:cx="401.27255"
     inkscape:cy="279.99279"
     inkscape:window-x="41"
     inkscape:window-y="27"
     inkscape:window-maximized="1"
     inkscape:current-layer="svg10" />
  <g
     transform="matrix(0.60737895,0,0,-0.60737895,112.77419,592.16223)"
     id="g438"
     inkscape:export-xdpi="60.622704"
     inkscape:export-ydpi="60.622704">
    <g
       id="g440">
      <g
         id="g446">
        <g
           id="g448">
          <path
             d="m 97.373,577.633 -44.703,-44.7 c -15.176,-15.186 -15.176,-40.032 0,-55.21 v 0 l 44.703,-44.701 c 15.179,-15.172 40.022,-15.172 55.197,0 v 0 l 44.704,44.701 c 15.175,15.178 15.175,40.024 0,55.21 v 0 l -44.704,44.7 c -7.588,7.587 -17.592,11.38 -27.597,11.38 v 0 c -10.005,0 -20.01,-3.793 -27.6,-11.38 m -3.4,-72.305 c 0,17.122 13.879,30.995 30.998,30.995 v 0 c 17.119,0 30.998,-13.873 30.998,-30.995 v 0 c 0,-17.122 -13.879,-31.001 -30.998,-31.001 v 0 c -17.119,0 -30.998,13.879 -30.998,31.001"
             style="fill:url(#linearGradient454);stroke:none"
             id="path456"
             inkscape:connector-curvature="0" />
        </g>
      </g>
    </g>
  </g>
  <g
     transform="matrix(0.60737895,0,0,-0.60737895,112.77419,592.16223)"
     id="g458"
     inkscape:export-xdpi="60.622704"
     inkscape:export-ydpi="60.622704">
    <g
       id="g460">
      <g
         id="g466">
        <g
           id="g468">
          <path
             d="M 110.245,564.751 65.542,520.058 c -8.122,-8.126 -8.118,-21.335 0,-29.459 v 0 L 110.245,445.9 c 3.904,-3.901 9.132,-6.059 14.726,-6.059 v 0 c 5.595,0 10.825,2.158 14.726,6.051 v 0 l 44.7,44.7 c 8.122,8.131 8.126,21.34 0.003,29.466 v 0 l -44.703,44.699 c -3.901,3.901 -9.131,6.052 -14.726,6.052 v 0 c -5.594,0 -10.822,-2.151 -14.726,-6.058 M 93.973,505.328 c 0,17.122 13.879,30.995 30.998,30.995 v 0 c 17.119,0 30.998,-13.873 30.998,-30.995 v 0 c 0,-17.122 -13.879,-31.001 -30.998,-31.001 v 0 c -17.119,0 -30.998,13.879 -30.998,31.001"
             style="fill:url(#linearGradient474);stroke:none"
             id="path476"
             inkscape:connector-curvature="0" />
        </g>
      </g>
    </g>
  </g>
  <g
     transform="matrix(0.60737895,0,0,-0.60737895,112.77419,592.16223)"
     id="g478"
     inkscape:export-xdpi="60.622704"
     inkscape:export-ydpi="60.622704">
    <g
       id="g480">
      <g
         id="g486">
        <g
           id="g488">
          <path
             d="m 206.022,504.699 c 0,-19.031 15.437,-34.472 34.479,-34.472 v 0 c 19.04,0 34.479,15.441 34.479,34.472 v 0 c 0,19.044 -15.439,34.486 -34.479,34.486 v 0 c -19.042,0 -34.479,-15.442 -34.479,-34.486"
             style="fill:url(#linearGradient494);stroke:none"
             id="path496"
             inkscape:connector-curvature="0" />
        </g>
      </g>
    </g>
  </g>
  <g
     transform="matrix(0.60737895,0,0,-0.60737895,112.77419,592.16223)"
     id="g498"
     inkscape:export-xdpi="60.622704"
     inkscape:export-ydpi="60.622704">
    <g
       id="g500">
      <g
         id="g506">
        <g
           id="g508">
          <path
             d="m 194.908,552.933 c 0,-7.593 6.155,-13.748 13.748,-13.748 v 0 c 7.592,0 13.751,6.155 13.751,13.748 v 0 c 0,7.592 -6.159,13.747 -13.751,13.747 v 0 c -7.593,0 -13.748,-6.155 -13.748,-13.747"
             style="fill:url(#linearGradient514);stroke:none"
             id="path516"
             inkscape:connector-curvature="0" />
        </g>
      </g>
    </g>
  </g>
  <g
     transform="matrix(0.60737895,0,0,-0.60737895,112.77419,592.16223)"
     id="g518"
     inkscape:export-xdpi="60.622704"
     inkscape:export-ydpi="60.622704">
    <g
       id="g520">
      <g
         id="g526">
        <g
           id="g528">
          <path
             d="m 216.335,598.635 c 0,-8.671 7.033,-15.704 15.708,-15.704 v 0 c 8.676,0 15.707,7.033 15.707,15.704 v 0 c 0,8.679 -7.031,15.711 -15.707,15.711 v 0 c -8.675,0 -15.708,-7.032 -15.708,-15.711"
             style="fill:url(#linearGradient534);stroke:none"
             id="path536"
             inkscape:connector-curvature="0" />
        </g>
      </g>
    </g>
  </g>
  <text
     xml:space="preserve"
     style="font-style:normal;font-variant:normal;font-weight:normal;font-stretch:normal;font-size:64.87065125px;line-height:1.25;font-family:Dyuthi;-inkscape-font-specification:Dyuthi;letter-spacing:0px;word-spacing:0px;fill:#e84e33;fill-opacity:1;stroke:none;stroke-width:1.62176633"
     x="296.45605"
     y="328.172"
     id="text3812"
     inkscape:export-xdpi="60.622704"
     inkscape:export-ydpi="60.622704"><tspan
       sodipodi:role="line"
       id="tspan3810"
       x="296.45605"
       y="328.172"
       style="font-style:normal;font-variant:normal;font-weight:normal;font-stretch:normal;font-size:138.39073181px;font-family:Dyuthi;-inkscape-font-specification:Dyuthi;opacity:0;fill:#e84e33;fill-opacity:1;stroke-width:1.62176633">Delapp</tspan></text>
</svg>
